HIERARCHY
ROOT Hips
{
	OFFSET 0.00000 0.00000 0.00000
	CHANNELS 6 Xposition Yposition Zposition Zrotation Yrotation Xrotation 
	JOINT LHipJoint
	{
		OFFSET 0 0 0
		CHANNELS 3 Zrotation Yrotation Xrotation
		JOINT LeftUpLeg
		{
			OFFSET 1.37590 -1.78394 0.89329
			CHANNELS 3 Zrotation Yrotation Xrotation
			JOINT LeftLeg
			{
				OFFSET 2.47928 -6.81178 0.00000
				CHANNELS 3 Zrotation Yrotation Xrotation
				JOINT LeftFoot
				{
					OFFSET 2.63345 -7.23535 0.00000
					CHANNELS 3 Zrotation Yrotation Xrotation
					JOINT LeftToeBase
					{
						OFFSET 0.23938 -0.65768 2.27012
						CHANNELS 3 Zrotation Yrotation Xrotation
						End Site
						{
							OFFSET 0.00000 -0.00000 1.18363
						}
					}
				}
			}
		}
	}
	JOINT RHipJoint
	{
		OFFSET 0 0 0
		CHANNELS 3 Zrotation Yrotation Xrotation
		JOINT RightUpLeg
		{
			OFFSET -1.33617 -1.78394 0.89329
			CHANNELS 3 Zrotation Yrotation Xrotation
			JOINT RightLeg
			{
				OFFSET -2.56922 -7.05888 0.00000
				CHANNELS 3 Zrotation Yrotation Xrotation
				JOINT RightFoot
				{
					OFFSET -2.56568 -7.04915 0.00000
					CHANNELS 3 Zrotation Yrotation Xrotation
					JOINT RightToeBase
					{
						OFFSET -0.27533 -0.75646 2.18105
						CHANNELS 3 Zrotation Yrotation Xrotation
						End Site
						{
							OFFSET -0.00000 -0.00000 1.15233
						}
					}
				}
			}
		}
	}
	JOINT LowerBack
	{
		OFFSET 0 0 0
		CHANNELS 3 Zrotation Yrotation Xrotation
		JOINT Spine
		{
			OFFSET 0.06190 2.15152 -0.00935
			CHANNELS 3 Zrotation Yrotation Xrotation
			JOINT Spine1
			{
				OFFSET 0.06334 2.15332 0.00872
				CHANNELS 3 Zrotation Yrotation Xrotation
				JOINT Neck
				{
					OFFSET 0 0 0
					CHANNELS 3 Zrotation Yrotation Xrotation
					JOINT Neck1
					{
						OFFSET -0.04202 1.66908 0.23524
						CHANNELS 3 Zrotation Yrotation Xrotation
						JOINT Head
						{
							OFFSET 0.07510 1.69357 -0.24440
							CHANNELS 3 Zrotation Yrotation Xrotation
							End Site
							{
								OFFSET 0.02556 1.71719 -0.11000
							}
						}
					}
				}
				JOINT LeftShoulder
				{
					OFFSET 0 0 0
					CHANNELS 3 Zrotation Yrotation Xrotation
					JOINT LeftArm
					{
						OFFSET 3.67168 1.26306 -0.41342
						CHANNELS 3 Zrotation Yrotation Xrotation
						JOINT LeftForeArm
						{
							OFFSET 4.68510 -0.00000 -0.00000
							CHANNELS 3 Zrotation Yrotation Xrotation
							JOINT LeftHand
							{
								OFFSET 3.39626 -0.00000 -0.00000
								CHANNELS 3 Zrotation Yrotation Xrotation
								JOINT LeftFingerBase
								{
									OFFSET 0 0 0
									CHANNELS 3 Zrotation Yrotation Xrotation
									JOINT LeftHandIndex1
									{
										OFFSET 0.48608 -0.00000 -0.00000
										CHANNELS 3 Zrotation Yrotation Xrotation
										End Site
										{
											OFFSET 0.39189 -0.00000 -0.00000
										}
									}
								}
								JOINT LThumb
								{
									OFFSET 0 0 0
									CHANNELS 3 Zrotation Yrotation Xrotation
									End Site
									{
										OFFSET 0.39787 -0.00000 0.39787
									}
								}
							}
						}
					}
				}
				JOINT RightShoulder
				{
					OFFSET 0 0 0
					CHANNELS 3 Zrotation Yrotation Xrotation
					JOINT RightArm
					{
						OFFSET -3.04136 1.42992 -0.76390
						CHANNELS 3 Zrotation Yrotation Xrotation
						JOINT RightForeArm
						{
							OFFSET -5.55576 -0.00000 -0.00000
							CHANNELS 3 Zrotation Yrotation Xrotation
							JOINT RightHand
							{
								OFFSET -3.32774 -0.00000 -0.00000
								CHANNELS 3 Zrotation Yrotation Xrotation
								JOINT RightFingerBase
								{
									OFFSET 0 0 0
									CHANNELS 3 Zrotation Yrotation Xrotation
									JOINT RightHandIndex1
									{
										OFFSET -0.50763 -0.00000 -0.00000
										CHANNELS 3 Zrotation Yrotation Xrotation
										End Site
										{
											OFFSET -0.40926 -0.00000 -0.00000
										}
									}
								}
								JOINT RThumb
								{
									OFFSET 0 0 0
									CHANNELS 3 Zrotation Yrotation Xrotation
									End Site
									{
										OFFSET -0.41551 -0.00000 0.41551
									}
								}
							}
						}
					}
				}
			}
		}
	}
}
MOTION
Frames: 11
Frame Time: .0083333
2.9350 18.0845 5.9913 -76.5333 -80.8033 82.3402 0.0000 0.0000 0.0000 -4.8065 -10.0751 -24.8144 9.9467 17.3798 59.3101 0.0590 -1.2719 -4.3216 0.6417 -5.1247 -14.2647 0.0000 0.0000 0.0000 34.1880 3.0435 -8.7596 -0.5611 -4.7980 13.3334 0.1429 -10.2540 -12.0195 -1.0851 -6.6206 18.5961 5.8274 0.8624 -1.8484 3.2609 1.0672 -3.0833 0.0976 0.3984 -2.0963 -8.0981 -5.6574 -9.0541 2.8235 -7.0442 14.9169 1.6172 -3.6936 6.4185 0.0000 -0.0000 0.0000 -84.8458 -21.5370 51.0030 68.7045 -58.2151 -41.6681 -0.0000 -0.0000 17.8891 14.9402 14.9786 3.9451 -7.1250 0.0000 -0.0000 -11.7492 45.1272 -0.0374 0.0000 -0.0000 0.0000 72.5485 22.6562 45.4589 -81.4508 59.7220 -52.6031 0.0000 0.0000 11.4415 -13.2072 -14.5546 3.3752 7.1250 -0.0000 -0.0000 13.1927 -44.5012 0.1654
2.7992 18.0878 5.9816 -78.5124 -80.8128 84.3612 0.0000 0.0000 0.0000 -4.6346 -10.0702 -25.6080 9.7076 17.2421 58.5065 0.0845 -1.2171 -5.1992 0.6433 -5.1309 -14.2824 0.0000 0.0000 0.0000 34.3643 3.0075 -8.0609 -0.5322 -4.6747 12.9831 0.1244 -10.1352 -12.1974 -1.0481 -6.5102 18.2722 5.9857 0.9383 -1.8041 3.2157 1.1724 -3.1219 -0.0372 0.4447 -2.1536 -8.0310 -5.6137 -9.0529 2.8820 -7.0018 14.8584 1.6299 -3.6640 6.3964 0.0000 0.0000 0.0000 -84.4274 -20.7816 50.7118 68.0891 -58.1059 -41.1453 -0.0000 -0.0000 17.4508 14.6758 15.0574 3.8922 -7.1250 0.0000 -0.0000 -12.0109 45.1747 -0.0526 0.0000 0.0000 0.0000 72.9524 22.2267 45.6327 -80.6410 59.6664 -51.9040 0.0000 0.0000 11.2017 -12.9364 -14.8208 3.3626 7.1250 -0.0000 -0.0000 13.5124 -44.7341 0.0904
2.6639 18.0893 5.9725 -80.4782 -80.8055 86.3850 0.0000 0.0000 0.0000 -4.4465 -10.0504 -26.3787 9.4308 17.0771 57.5683 0.1108 -1.1383 -5.9909 0.6479 -5.1492 -14.3347 0.0000 0.0000 0.0000 34.5432 2.9959 -7.3946 -0.5067 -4.5630 12.6662 0.1066 -10.0376 -12.3908 -1.0085 -6.3897 17.9195 6.1458 1.0117 -1.7646 3.1752 1.2739 -3.1617 -0.1683 0.4889 -2.2091 -7.9667 -5.5695 -9.0659 2.9358 -6.9558 14.7961 1.6414 -3.6329 6.3754 -0.0000 0.0000 0.0000 -84.0424 -19.9998 50.4103 67.3625 -57.9723 -40.5288 -0.0000 -0.0000 16.9817 14.4109 15.1335 3.8379 -7.1250 0.0000 -0.0000 -12.2724 45.2191 -0.0674 -0.0000 0.0000 0.0000 73.3500 21.7848 45.8159 -79.7370 59.5982 -51.1240 0.0000 0.0000 10.8988 -12.7160 -15.1071 3.3657 7.1250 -0.0000 -0.0000 13.7951 -44.9916 0.0029
2.5292 18.0890 5.9641 -82.4357 -80.7922 88.4162 0.0000 0.0000 0.0000 -4.2573 -10.0197 -27.1230 9.1194 16.8840 56.5022 0.1368 -1.0308 -6.6980 0.6533 -5.1701 -14.3944 0.0000 0.0000 0.0000 34.7115 3.0057 -6.7629 -0.4846 -4.4637 12.3850 0.0897 -9.9609 -12.5974 -0.9651 -6.2548 17.5255 6.2991 1.0829 -1.7276 3.1357 1.3727 -3.2070 -0.2946 0.5315 -2.2685 -7.9111 -5.5232 -9.0827 2.9914 -6.9055 14.7304 1.6553 -3.5999 6.3541 0.0000 -0.0000 0.0000 -83.6931 -19.1870 50.0986 66.5120 -57.8092 -39.8084 -0.0000 -0.0000 16.4835 14.1642 15.2034 3.7866 -7.1250 0.0000 -0.0000 -12.5159 45.2595 -0.0815 0.0000 -0.0000 0.0000 73.7424 21.3209 46.0120 -78.7293 59.5145 -50.2552 0.0000 0.0000 10.5428 -12.5413 -15.4391 3.3891 7.1250 -0.0000 -0.0000 14.0532 -45.2988 -0.1058
2.3954 18.0871 5.9565 -84.3032 -80.7763 90.3723 0.0000 0.0000 0.0000 -4.0725 -9.9904 -27.8359 8.7746 16.6605 55.3074 0.1619 -0.9131 -7.3307 0.6672 -5.2238 -14.5481 0.0000 0.0000 0.0000 34.8644 3.0279 -6.1724 -0.4658 -4.3778 12.1422 0.0742 -9.9116 -12.8140 -0.9149 -6.0944 17.0586 6.4419 1.1460 -1.6897 3.0965 1.4611 -3.2552 -0.4148 0.5689 -2.3317 -7.8622 -5.4744 -9.1068 3.0452 -6.8493 14.6579 1.6700 -3.5643 6.3318 -0.0000 -0.0000 0.0000 -83.3821 -18.3481 49.7661 65.5286 -57.6117 -38.9771 -0.0000 -0.0000 15.9643 13.9427 15.2666 3.7402 -7.1250 0.0000 -0.0000 -12.7348 45.2959 -0.0946 -0.0000 -0.0000 0.0000 74.1303 20.8458 46.2253 -77.5978 59.4107 -49.2806 0.0000 0.0000 10.1433 -12.4072 -15.7865 3.4251 7.1250 -0.0000 -0.0000 14.2823 -45.6249 -0.2249
2.2625 18.0837 5.9495 -86.1162 -80.7654 92.2880 0.0000 0.0000 0.0000 -3.8987 -9.9633 -28.5102 8.3976 16.4040 53.9823 0.1857 -0.7795 -7.9007 0.6855 -5.2934 -14.7472 0.0000 0.0000 0.0000 34.9944 3.0698 -5.6189 -0.4506 -4.3064 11.9404 0.0594 -9.8826 -13.0450 -0.8623 -5.9214 16.5565 6.5699 1.2019 -1.6543 3.0547 1.5400 -3.3044 -0.5296 0.6017 -2.3949 -7.8133 -5.4212 -9.1332 3.0919 -6.7849 14.5686 1.6833 -3.5250 6.3039 -0.0000 -0.0000 0.0000 -83.1123 -17.4913 49.4095 64.3967 -57.3720 -38.0225 -0.0000 -0.0000 15.4292 13.7549 15.3373 3.7045 -7.1250 0.0000 -0.0000 -12.9256 45.3437 -0.1115 -0.0000 -0.0000 0.0000 74.5172 20.3609 46.4540 -76.3319 59.2822 -48.1916 0.0000 0.0000 9.7091 -12.3131 -16.1419 3.4727 7.1250 -0.0000 -0.0000 14.4807 -45.9631 -0.3515
2.1292 18.0788 5.9436 -88.0042 -80.7551 94.2861 0.0000 0.0000 0.0000 -3.7349 -9.9255 -29.1243 7.9877 16.1102 52.5185 0.2078 -0.6157 -8.4128 0.7016 -5.3539 -14.9209 0.0000 0.0000 0.0000 35.1052 3.1264 -5.0920 -0.4388 -4.2505 11.7824 0.0433 -9.8512 -13.2883 -0.8095 -5.7418 16.0370 6.6888 1.2575 -1.6399 3.0140 1.6161 -3.3410 -0.6379 0.6342 -2.4330 -7.7738 -5.3657 -9.1631 3.1369 -6.7142 14.4547 1.6982 -3.4828 6.2688 -0.0000 -0.0000 0.0000 -82.8898 -16.6338 49.0252 63.1103 -57.0833 -36.9409 -0.0000 -0.0000 14.8734 13.6228 15.3969 3.6816 -7.1250 0.0000 -0.0000 -13.0628 45.3871 -0.1270 -0.0000 -0.0000 0.0000 74.8962 19.8818 46.6931 -74.9194 59.1230 -46.9783 0.0000 0.0000 9.2446 -12.2585 -16.5008 3.5314 7.1250 -0.0000 -0.0000 14.6472 -46.3088 -0.4833
1.9956 18.0726 5.9382 -89.9258 -80.7357 96.3233 0.0000 0.0000 0.0000 -3.5659 -9.8840 -29.6738 7.5483 15.7767 50.9187 0.2270 -0.4248 -8.8572 0.7132 -5.3969 -15.0442 0.0000 0.0000 0.0000 35.2096 3.1989 -4.5879 -0.4301 -4.2087 11.6645 0.0262 -9.8216 -13.5459 -0.7577 -5.5593 15.5108 6.8008 1.3118 -1.6370 2.9773 1.6889 -3.3684 -0.7379 0.6657 -2.4552 -7.7376 -5.3077 -9.1900 3.1742 -6.6374 14.3137 1.7120 -3.4380 6.2241 -0.0000 -0.0000 0.0000 -82.7179 -15.7739 48.6117 61.6695 -56.7386 -35.7337 -0.0000 -0.0000 14.3047 13.5088 15.4496 3.6618 -7.1250 0.0000 -0.0000 -13.1817 45.4256 -0.1409 -0.0000 -0.0000 0.0000 75.2686 19.4061 46.9366 -73.3530 58.9266 -45.6353 0.0000 0.0000 8.7526 -12.2398 -16.8676 3.6018 7.1250 -0.0000 -0.0000 14.7864 -46.6663 -0.6213
1.8607 18.0650 5.9337 -91.9554 -80.7056 98.4686 0.0000 0.0000 0.0000 -3.3945 -9.8347 -30.1440 7.0817 15.4003 49.1826 0.2423 -0.1884 -9.2325 0.7190 -5.4186 -15.1065 0.0000 0.0000 0.0000 35.3045 3.2757 -4.0945 -0.4238 -4.1782 11.5786 0.0064 -9.7715 -13.8133 -0.7081 -5.3780 14.9900 6.9081 1.3699 -1.6519 2.9444 1.7644 -3.3834 -0.8310 0.6997 -2.4542 -7.7041 -5.2497 -9.2167 3.2009 -6.5576 14.1529 1.7234 -3.3924 6.1728 -0.0000 -0.0000 0.0000 -82.6022 -14.9200 48.1668 60.0649 -56.3272 -34.3951 -0.0000 -0.0000 13.7250 13.4092 15.5102 3.6478 -7.1250 0.0000 -0.0000 -13.2900 45.4738 -0.1582 -0.0000 -0.0000 0.0000 75.6325 18.9344 47.1799 -71.6321 58.6860 -44.1631 0.0000 0.0000 8.2361 -12.2264 -17.2305 3.6726 7.1250 -0.0000 -0.0000 14.9223 -47.0203 -0.7603
1.7244 18.0557 5.9299 -94.0870 -80.6583 100.7260 0.0000 0.0000 0.0000 -3.2113 -9.7843 -30.5463 6.5926 14.9790 47.3160 0.2520 0.1069 -9.5213 0.7193 -5.4196 -15.1093 0.0000 0.0000 0.0000 35.3939 3.3570 -3.6245 -0.4203 -4.1611 11.5303 -0.0168 -9.6944 -14.0907 -0.6589 -5.1919 14.4566 7.0135 1.4326 -1.6897 2.9153 1.8432 -3.3919 -0.9183 0.7360 -2.4331 -7.6697 -5.1904 -9.2536 3.2141 -6.4731 13.9923 1.7303 -3.3453 6.1226 -0.0000 0.0000 0.0000 -82.5400 -14.0692 47.6838 58.3010 -55.8399 -32.9313 -0.0000 -0.0000 13.1415 13.3149 15.5702 3.6348 -7.1250 0.0000 -0.0000 -13.3936 45.5218 -0.1756 -0.0000 0.0000 0.0000 75.9897 18.4641 47.4235 -69.7625 58.3945 -42.5683 0.0000 0.0000 7.6968 -12.2226 -17.5976 3.7470 7.1250 -0.0000 -0.0000 15.0536 -47.3793 -0.9034
1.5876 18.0453 5.9262 -96.1006 -80.5988 102.8640 0.0000 0.0000 0.0000 -3.0186 -9.7589 -30.8710 6.0862 14.5113 45.3266 0.2553 0.4506 -9.7174 0.7188 -5.4178 -15.1042 0.0000 0.0000 0.0000 35.4802 3.4226 -3.1684 -0.4185 -4.1525 11.5060 -0.0418 -9.6099 -14.3794 -0.6097 -4.9977 13.9019 7.1072 1.4881 -1.7295 2.8926 1.9117 -3.3913 -0.9924 0.7681 -2.4024 -7.6354 -5.1319 -9.3102 3.2138 -6.3865 13.8441 1.7326 -3.2982 6.0793 -0.0000 0.0000 0.0000 -82.5361 -13.2313 47.1601 56.3814 -55.2660 -31.3482 -0.0000 -0.0000 12.5760 13.2361 15.6544 3.6316 -7.1250 0.0000 -0.0000 -13.4906 45.5957 -0.2020 -0.0000 0.0000 0.0000 76.3417 17.9980 47.6551 -67.7473 58.0437 -40.8552 0.0000 0.0000 7.1418 -12.1949 -17.9546 3.8114 7.1250 -0.0000 -0.0000 15.2062 -47.7248 -1.0452
